<?xml version="1.0" standalone="no"?>
<!DOCTYPE svg PUBLIC "-//W3C//DTD SVG 20010904//EN"
 "http://www.w3.org/TR/2001/REC-SVG-20010904/DTD/svg10.dtd">
<svg version="1.0" xmlns="http://www.w3.org/2000/svg"
 width="500.000000pt" height="500.000000pt" viewBox="0 0 500.000000 500.000000"
 preserveAspectRatio="xMidYMid meet">
<metadata>
Created by potrace 1.16, written by Peter Selinger 2001-2019
</metadata>
<g transform="translate(0.000000,500.000000) scale(0.100000,-0.100000)"
fill="#ffffff" stroke="none">
<path d="M1826 3408 c-13 -19 -16 -58 -16 -226 0 -198 5 -235 34 -254 6 -4
131 -8 278 -8 311 0 283 -10 338 120 19 44 37 80 40 80 3 0 23 -39 45 -86 21
-47 45 -92 52 -100 12 -11 65 -14 284 -14 256 0 270 1 289 20 19 19 20 33 20
233 0 176 -3 216 -16 235 l-15 22 -659 0 -659 0 -15 -22z"/>
<path d="M1410 2740 c-19 -19 -20 -33 -20 -239 l0 -220 26 -20 c26 -20 38 -21
335 -21 169 0 319 4 332 9 19 7 43 51 116 212 50 111 94 212 97 224 3 13 -3
31 -16 48 l-21 27 -415 0 c-401 0 -415 -1 -434 -20z"/>
<path d="M2725 2740 c-9 -10 -17 -31 -17 -45 0 -15 42 -119 93 -232 73 -159
99 -207 117 -214 13 -5 162 -9 331 -9 297 0 309 1 335 21 l26 20 0 220 c0 206
-1 220 -20 239 -19 19 -33 20 -433 20 -399 0 -415 -1 -432 -20z"/>
<path d="M990 2070 c-19 -19 -20 -33 -20 -244 0 -221 0 -225 22 -240 19 -14
75 -16 403 -16 290 0 385 3 398 13 22 16 197 408 197 441 0 14 -9 35 -20 46
-19 19 -33 20 -490 20 -457 0 -471 -1 -490 -20z"/>
<path d="M3032 2070 c-12 -12 -22 -31 -22 -44 0 -28 168 -407 193 -436 16 -19
30 -20 405 -20 364 0 390 1 405 18 15 16 17 48 17 245 0 222 0 226 -22 241
-20 14 -83 16 -488 16 -455 0 -467 0 -488 -20z"/>
</g>
</svg>
