<?xml version="1.0" standalone="no"?>
<!DOCTYPE svg PUBLIC "-//W3C//DTD SVG 20010904//EN"
 "http://www.w3.org/TR/2001/REC-SVG-20010904/DTD/svg10.dtd">
<svg version="1.0" xmlns="http://www.w3.org/2000/svg"
 width="1118.000000pt" height="140.000000pt" viewBox="0 0 1118.000000 140.000000"
 preserveAspectRatio="xMidYMid meet">
<metadata>
Created by potrace 1.16, written by Peter Selinger 2001-2019
</metadata>
<g transform="translate(0.000000,140.000000) scale(0.100000,-0.100000)"
fill="#000000" stroke="none">
<path d="M643 1390 c-30 -12 -35 -50 -31 -213 2 -94 7 -140 16 -149 18 -18
371 -24 402 -8 12 7 35 41 52 76 16 35 31 64 33 64 2 0 17 -29 33 -64 17 -35
40 -69 52 -76 31 -16 384 -10 402 8 19 19 19 335 0 354 -10 10 -111 13 -475
15 -256 1 -472 -2 -484 -7z"/>
<path d="M3442 1388 c-12 -15 -523 -1302 -530 -1335 -4 -23 -3 -23 101 -23 71
0 108 4 115 13 5 6 40 91 77 187 37 96 71 182 75 190 7 11 16 -1 36 -47 l27
-63 320 -2 320 -3 52 -135 52 -135 108 -3 c60 -1 112 1 116 5 4 4 -113 312
-259 683 l-268 675 -165 3 c-125 2 -169 -1 -177 -10z m252 -330 c168 -437 216
-564 216 -570 0 -5 -135 -8 -300 -8 -223 0 -300 3 -300 12 0 10 235 630 247
651 2 4 26 7 53 7 l48 0 36 -92z"/>
<path d="M6115 1388 c-3 -7 -4 -314 -3 -683 l3 -670 105 0 105 0 5 290 c5 275
6 293 28 339 34 75 66 111 124 140 38 19 68 26 109 26 69 0 104 -12 142 -48
62 -58 62 -57 67 -417 l5 -330 105 0 105 0 3 320 c3 349 -1 389 -50 485 -57
116 -167 175 -323 173 -128 0 -223 -47 -285 -140 l-30 -46 -2 284 -3 284 -103
3 c-76 2 -104 -1 -107 -10z"/>
<path d="M7230 1290 l0 -110 105 0 106 0 -3 108 -3 107 -102 3 -103 3 0 -111z"/>
<path d="M7807 1243 c-4 -3 -7 -62 -7 -129 l0 -123 -87 -3 -88 -3 -3 -87 -3
-88 91 0 90 0 0 -286 c0 -189 4 -300 12 -325 16 -54 69 -113 126 -141 43 -21
60 -23 192 -23 l145 0 0 90 0 90 -132 3 -133 3 0 294 0 295 125 0 125 0 0 90
0 90 -125 0 -125 0 0 130 0 130 -98 0 c-54 0 -102 -3 -105 -7z"/>
<path d="M10707 1244 c-4 -4 -7 -63 -7 -130 l0 -123 -87 -3 -88 -3 0 -85 0
-85 88 -3 87 -3 0 -283 c0 -325 5 -351 75 -422 60 -59 96 -69 260 -69 l140 0
0 90 0 90 -127 3 -128 3 0 294 0 294 123 3 122 3 0 85 0 85 -122 3 -122 3 -3
127 -3 127 -101 3 c-55 1 -103 0 -107 -4z"/>
<path d="M5443 1010 c-249 -45 -417 -246 -417 -500 0 -100 27 -199 75 -275 43
-70 75 -102 144 -147 197 -129 477 -107 646 51 l54 50 -67 68 -68 68 -47 -47
c-67 -66 -120 -88 -213 -88 -93 0 -157 27 -214 90 -63 70 -81 120 -80 230 0
117 23 178 93 243 66 62 121 81 218 75 90 -5 126 -21 195 -86 l49 -46 67 67
66 67 -39 40 c-110 113 -297 169 -462 140z"/>
<path d="M8793 1009 c-158 -26 -295 -126 -367 -266 -44 -86 -60 -251 -36 -357
59 -260 338 -425 633 -373 106 19 212 67 280 126 26 24 47 46 47 49 -1 4 -28
36 -60 71 l-59 64 -45 -41 c-24 -22 -68 -53 -98 -69 -48 -25 -62 -28 -158 -28
-95 0 -110 3 -156 27 -28 15 -66 41 -83 59 -36 36 -81 118 -81 149 0 20 5 20
380 20 l380 0 0 76 c0 201 -98 368 -264 449 -101 49 -199 63 -313 44z m203
-193 c60 -28 117 -91 138 -154 27 -77 46 -72 -255 -72 l-272 0 6 37 c13 78 93
170 173 198 62 22 151 19 210 -9z"/>
<path d="M9945 1014 c-269 -41 -445 -241 -445 -504 0 -140 51 -268 143 -360
101 -101 210 -143 367 -143 158 0 268 44 368 146 l43 44 -66 61 c-36 34 -70
62 -74 62 -5 0 -20 -15 -35 -34 -15 -20 -53 -48 -91 -67 -60 -29 -70 -31 -148
-27 -128 7 -200 56 -255 178 -37 80 -36 202 2 285 53 117 126 166 252 173 72
4 89 1 137 -21 30 -14 73 -44 96 -67 l40 -42 28 20 c15 11 47 40 71 65 l43 44
-41 42 c-55 57 -122 98 -197 121 -64 20 -185 32 -238 24z"/>
<path d="M4700 979 c-119 -23 -226 -107 -279 -219 l-26 -55 0 -335 0 -335 103
-3 102 -3 0 376 0 375 175 0 175 0 0 105 0 105 -102 -1 c-57 -1 -123 -5 -148
-10z"/>
<path d="M7230 510 l0 -481 103 3 102 3 0 475 0 475 -102 3 -103 3 0 -481z"/>
<path d="M332 894 c-21 -15 -22 -21 -22 -179 0 -158 1 -164 22 -179 32 -23
453 -24 484 -1 19 13 154 297 154 324 0 6 -9 20 -20 31 -19 19 -33 20 -308 20
-244 0 -291 -2 -310 -16z"/>
<path d="M1280 890 c-11 -11 -20 -25 -20 -31 0 -27 135 -311 154 -324 31 -23
452 -22 484 1 21 15 22 21 22 179 0 158 -1 164 -22 179 -19 14 -66 16 -310 16
-275 0 -289 -1 -308 -20z"/>
<path d="M20 400 c-18 -18 -20 -33 -20 -175 0 -142 2 -157 20 -175 19 -19 33
-20 288 -20 218 0 271 3 288 15 19 13 154 297 154 324 0 6 -9 20 -20 31 -19
19 -33 20 -355 20 -322 0 -336 -1 -355 -20z"/>
<path d="M1500 400 c-11 -11 -20 -25 -20 -32 0 -25 132 -304 151 -320 19 -16
49 -18 290 -18 256 0 270 1 289 20 18 18 20 33 20 179 0 154 -1 160 -22 175
-19 14 -70 16 -355 16 -320 0 -334 -1 -353 -20z"/>
</g>
</svg>
